%TF.GenerationSoftware,KiCad,Pcbnew,7.0.6*%
%TF.CreationDate,2023-11-14T23:27:57+05:30*%
%TF.ProjectId,Prometheus v2.0,50726f6d-6574-4686-9575-732076322e30,2.3*%
%TF.SameCoordinates,Original*%
%TF.FileFunction,Soldermask,Bot*%
%TF.FilePolarity,Negative*%
%FSLAX46Y46*%
G04 Gerber Fmt 4.6, Leading zero omitted, Abs format (unit mm)*
G04 Created by KiCad (PCBNEW 7.0.6) date 2023-11-14 23:27:57*
%MOMM*%
%LPD*%
G01*
G04 APERTURE LIST*
G04 Aperture macros list*
%AMRoundRect*
0 Rectangle with rounded corners*
0 $1 Rounding radius*
0 $2 $3 $4 $5 $6 $7 $8 $9 X,Y pos of 4 corners*
0 Add a 4 corners polygon primitive as box body*
4,1,4,$2,$3,$4,$5,$6,$7,$8,$9,$2,$3,0*
0 Add four circle primitives for the rounded corners*
1,1,$1+$1,$2,$3*
1,1,$1+$1,$4,$5*
1,1,$1+$1,$6,$7*
1,1,$1+$1,$8,$9*
0 Add four rect primitives between the rounded corners*
20,1,$1+$1,$2,$3,$4,$5,0*
20,1,$1+$1,$4,$5,$6,$7,0*
20,1,$1+$1,$6,$7,$8,$9,0*
20,1,$1+$1,$8,$9,$2,$3,0*%
G04 Aperture macros list end*
%ADD10O,2.404000X4.604000*%
%ADD11O,2.204000X4.204000*%
%ADD12O,4.204000X2.204000*%
%ADD13RoundRect,0.102000X0.990000X-0.990000X0.990000X0.990000X-0.990000X0.990000X-0.990000X-0.990000X0*%
%ADD14C,2.184000*%
%ADD15C,2.139000*%
%ADD16C,2.900000*%
%ADD17C,5.000000*%
%ADD18R,1.935000X1.935000*%
%ADD19C,1.935000*%
%ADD20R,1.700000X1.700000*%
%ADD21O,1.700000X1.700000*%
%ADD22C,3.000000*%
%ADD23RoundRect,0.250002X-1.599998X1.599998X-1.599998X-1.599998X1.599998X-1.599998X1.599998X1.599998X0*%
%ADD24C,3.700000*%
%ADD25R,1.600000X1.600000*%
%ADD26O,1.600000X1.600000*%
%ADD27R,1.905000X2.000000*%
%ADD28O,1.905000X2.000000*%
%ADD29R,2.200000X2.200000*%
%ADD30O,2.200000X2.200000*%
%ADD31R,1.575000X1.575000*%
%ADD32C,1.575000*%
%ADD33R,1.800000X1.800000*%
%ADD34C,1.800000*%
%ADD35R,1.600200X1.600200*%
%ADD36C,1.600200*%
G04 APERTURE END LIST*
D10*
%TO.C,J1*%
X101090000Y-82450000D03*
D11*
X95090000Y-82450000D03*
D12*
X98090000Y-87150000D03*
%TD*%
D13*
%TO.C,K1*%
X167394000Y-103617500D03*
D14*
X179394000Y-103617500D03*
D15*
X173394000Y-105617500D03*
D14*
X167394000Y-91417500D03*
X179394000Y-91417500D03*
%TD*%
D16*
%TO.C,H4*%
X92046000Y-131030000D03*
D17*
X92046000Y-131030000D03*
%TD*%
D16*
%TO.C,H3*%
X182046000Y-129633000D03*
D17*
X182046000Y-129633000D03*
%TD*%
D18*
%TO.C,U1*%
X113710000Y-65053500D03*
D19*
X111170000Y-65053500D03*
X108630000Y-65053500D03*
%TD*%
D20*
%TO.C,J3*%
X156810000Y-83613500D03*
D21*
X154270000Y-83613500D03*
X151730000Y-83613500D03*
X149190000Y-83613500D03*
X146650000Y-83613500D03*
X144110000Y-83613500D03*
X141570000Y-83613500D03*
X139030000Y-83613500D03*
X136490000Y-83613500D03*
X133950000Y-83613500D03*
X131410000Y-83613500D03*
X128870000Y-83613500D03*
X126330000Y-83613500D03*
%TD*%
D16*
%TO.C,H2*%
X182046000Y-61030000D03*
D17*
X182046000Y-61030000D03*
%TD*%
D22*
%TO.C,J2*%
X178000000Y-120885500D03*
D23*
X170700000Y-120885500D03*
D24*
X165200000Y-120885500D03*
%TD*%
D25*
%TO.C,U3*%
X109142000Y-91939500D03*
D26*
X109142000Y-94479500D03*
X109142000Y-97019500D03*
X109142000Y-99559500D03*
X116762000Y-99559500D03*
X116762000Y-97019500D03*
X116762000Y-94479500D03*
X116762000Y-91939500D03*
%TD*%
D16*
%TO.C,H1*%
X92046000Y-61030000D03*
D17*
X92046000Y-61030000D03*
%TD*%
D27*
%TO.C,U2*%
X113790000Y-81673500D03*
D28*
X111250000Y-81673500D03*
X108710000Y-81673500D03*
%TD*%
D29*
%TO.C,D1*%
X168568000Y-112249500D03*
D30*
X178728000Y-112249500D03*
%TD*%
D31*
%TO.C,S1*%
X93450000Y-67210000D03*
D32*
X93450000Y-73710000D03*
X88950000Y-67210000D03*
X88950000Y-73710000D03*
%TD*%
D33*
%TO.C,D2*%
X143427000Y-122663500D03*
D34*
X140887000Y-122663500D03*
%TD*%
D35*
%TO.C,LS1*%
X118784000Y-126463500D03*
D36*
X118784000Y-118853500D03*
%TD*%
D20*
%TO.C,U5*%
X126450000Y-74808500D03*
D21*
X126450000Y-72268500D03*
X126450000Y-69728500D03*
%TD*%
D20*
%TO.C,U4*%
X130849000Y-100057500D03*
D21*
X130849000Y-97517500D03*
X130849000Y-94977500D03*
X130849000Y-92437500D03*
%TD*%
M02*
