M48
; DRILL file {KiCad 7.0.6} date Tue Nov 14 23:27:57 2023
; FORMAT={-:-/ absolute / metric / decimal}
; #@! TF.CreationDate,2023-11-14T23:27:57+05:30
; #@! TF.GenerationSoftware,Kicad,Pcbnew,7.0.6
; #@! TF.FileFunction,Plated,1,2,PTH
FMAT,2
METRIC
; #@! TA.AperFunction,Plated,PTH,ViaDrill
T1C0.300
; #@! TA.AperFunction,Plated,PTH,ViaDrill
T2C0.400
; #@! TA.AperFunction,Plated,PTH,ViaDrill
T3C0.500
; #@! TA.AperFunction,Plated,PTH,ComponentDrill
T4C0.800
; #@! TA.AperFunction,Plated,PTH,ComponentDrill
T5C0.900
; #@! TA.AperFunction,Plated,PTH,ViaDrill
T6C1.000
; #@! TA.AperFunction,Plated,PTH,ComponentDrill
T7C1.000
; #@! TA.AperFunction,Plated,PTH,ComponentDrill
T8C1.001
; #@! TA.AperFunction,Plated,PTH,ComponentDrill
T9C1.050
; #@! TA.AperFunction,Plated,PTH,ComponentDrill
T10C1.100
; #@! TA.AperFunction,Plated,PTH,ComponentDrill
T11C1.290
; #@! TA.AperFunction,Plated,PTH,ComponentDrill
T12C1.320
; #@! TA.AperFunction,Plated,PTH,ComponentDrill
T13C1.800
; #@! TA.AperFunction,Plated,PTH,ComponentDrill
T14C2.500
%
G90
G05
T1
X138.944Y-107.908
X142.444Y-109.712
X142.444Y-110.712
T2
X91.86Y-93.962
X92.622Y-99.549
X103.798Y-69.069
X105.83Y-106.915
X110.402Y-87.358
X111.926Y-71.864
X112.18Y-75.419
X116.244Y-104.753
X118.403Y-93.2
X118.53Y-90.278
X121.07Y-101.328
X124.16Y-104.653
X127.66Y-104.603
X137.199Y-86.596
X137.199Y-88.246
X139.12Y-111.423
X140.68Y-107.283
X141.77Y-107.283
X142.533Y-108.312
X144.692Y-102.513
X146.978Y-91.421
X150.7Y-111.423
X152.312Y-92.564
X152.312Y-93.962
X152.542Y-110.719
X152.67Y-75.8
X153.709Y-92.564
X153.709Y-93.962
X154.725Y-118.98
X156.249Y-118.98
X157.646Y-118.98
X158.154Y-103.105
T3
X93.384Y-123.171
X95.924Y-123.171
X98.464Y-125.712
X101.004Y-120.631
X101.004Y-123.171
X101.004Y-130.791
X103.544Y-120.631
X103.544Y-123.171
X103.544Y-130.791
X103.75Y-86.75
X106.084Y-120.631
X106.084Y-123.171
X106.084Y-125.712
X106.084Y-128.251
X106.084Y-130.791
X106.25Y-86.75
X108.624Y-120.631
X108.624Y-123.171
X108.624Y-125.712
X108.624Y-128.251
X108.624Y-130.791
X111.75Y-91.25
X111.75Y-93.75
X114.25Y-91.25
X114.25Y-93.75
X114.593Y-107.55
X119.25Y-70.75
X120.17Y-113.011
X122.5Y-78.0
X122.5Y-80.75
X122.71Y-113.011
X125.25Y-110.5
X125.25Y-113.011
X126.404Y-78.0
X126.404Y-80.75
X130.75Y-102.852
X136.564Y-102.852
X136.691Y-116.313
X139.104Y-69.831
X139.104Y-72.371
X139.104Y-102.852
X143.676Y-113.519
X144.184Y-69.831
X144.184Y-72.371
X144.184Y-118.091
X146.724Y-118.091
X149.264Y-69.831
X149.264Y-72.371
X149.264Y-118.091
X159.0Y-73.75
X159.0Y-76.5
X169.25Y-85.25
X169.584Y-100.311
X172.124Y-90.151
X172.124Y-100.311
X174.664Y-90.151
X174.664Y-100.311
X177.204Y-100.311
T4
X109.142Y-91.939
X109.142Y-94.48
X109.142Y-97.019
X109.142Y-99.559
X116.762Y-91.939
X116.762Y-94.48
X116.762Y-97.019
X116.762Y-99.559
T5
X140.887Y-122.663
X143.427Y-122.663
T6
X126.023Y-91.421
X134.151Y-71.483
T7
X126.33Y-83.614
X126.45Y-69.728
X126.45Y-72.269
X126.45Y-74.808
X128.87Y-83.614
X130.849Y-92.438
X130.849Y-94.977
X130.849Y-97.517
X130.849Y-100.057
X131.41Y-83.614
X133.95Y-83.614
X136.49Y-83.614
X139.03Y-83.614
X141.57Y-83.614
X144.11Y-83.614
X146.65Y-83.614
X149.19Y-83.614
X151.73Y-83.614
X154.27Y-83.614
X156.81Y-83.614
T8
X118.784Y-118.853
X118.784Y-126.463
T9
X88.95Y-67.21
X88.95Y-73.71
X93.45Y-67.21
X93.45Y-73.71
T10
X108.71Y-81.673
X111.25Y-81.673
X113.79Y-81.673
X168.568Y-112.249
X178.728Y-112.249
T11
X108.63Y-65.053
X111.17Y-65.053
X113.71Y-65.053
X173.394Y-105.617
T12
X167.394Y-91.417
X167.394Y-103.617
X179.394Y-91.417
X179.394Y-103.617
T13
X165.2Y-120.885
X170.7Y-120.885
T14
X92.046Y-61.03
X92.046Y-131.03
X182.046Y-61.03
X182.046Y-129.633
T7
G00X95.09Y-81.45
M15
G01X95.09Y-83.45
M16
G05
G00X97.09Y-87.15
M15
G01X99.09Y-87.15
M16
G05
G00X101.09Y-81.2
M15
G01X101.09Y-83.7
M16
G05
T0
M30
