%TF.GenerationSoftware,KiCad,Pcbnew,7.0.6*%
%TF.CreationDate,2023-11-14T23:27:57+05:30*%
%TF.ProjectId,Prometheus v2.0,50726f6d-6574-4686-9575-732076322e30,2.3*%
%TF.SameCoordinates,Original*%
%TF.FileFunction,Soldermask,Top*%
%TF.FilePolarity,Negative*%
%FSLAX46Y46*%
G04 Gerber Fmt 4.6, Leading zero omitted, Abs format (unit mm)*
G04 Created by KiCad (PCBNEW 7.0.6) date 2023-11-14 23:27:57*
%MOMM*%
%LPD*%
G01*
G04 APERTURE LIST*
G04 Aperture macros list*
%AMRoundRect*
0 Rectangle with rounded corners*
0 $1 Rounding radius*
0 $2 $3 $4 $5 $6 $7 $8 $9 X,Y pos of 4 corners*
0 Add a 4 corners polygon primitive as box body*
4,1,4,$2,$3,$4,$5,$6,$7,$8,$9,$2,$3,0*
0 Add four circle primitives for the rounded corners*
1,1,$1+$1,$2,$3*
1,1,$1+$1,$4,$5*
1,1,$1+$1,$6,$7*
1,1,$1+$1,$8,$9*
0 Add four rect primitives between the rounded corners*
20,1,$1+$1,$2,$3,$4,$5,0*
20,1,$1+$1,$4,$5,$6,$7,0*
20,1,$1+$1,$6,$7,$8,$9,0*
20,1,$1+$1,$8,$9,$2,$3,0*%
G04 Aperture macros list end*
%ADD10O,2.404000X4.604000*%
%ADD11O,2.204000X4.204000*%
%ADD12O,4.204000X2.204000*%
%ADD13R,1.000000X1.000000*%
%ADD14RoundRect,0.250000X0.262500X0.450000X-0.262500X0.450000X-0.262500X-0.450000X0.262500X-0.450000X0*%
%ADD15RoundRect,0.250000X-0.262500X-0.450000X0.262500X-0.450000X0.262500X0.450000X-0.262500X0.450000X0*%
%ADD16RoundRect,0.250000X0.450000X-0.262500X0.450000X0.262500X-0.450000X0.262500X-0.450000X-0.262500X0*%
%ADD17RoundRect,0.102000X0.990000X-0.990000X0.990000X0.990000X-0.990000X0.990000X-0.990000X-0.990000X0*%
%ADD18C,2.184000*%
%ADD19C,2.139000*%
%ADD20RoundRect,0.250000X-0.450000X0.262500X-0.450000X-0.262500X0.450000X-0.262500X0.450000X0.262500X0*%
%ADD21C,2.900000*%
%ADD22C,5.000000*%
%ADD23RoundRect,0.250000X-0.250000X-0.475000X0.250000X-0.475000X0.250000X0.475000X-0.250000X0.475000X0*%
%ADD24R,2.000000X2.000000*%
%ADD25RoundRect,0.150000X-0.150000X0.587500X-0.150000X-0.587500X0.150000X-0.587500X0.150000X0.587500X0*%
%ADD26RoundRect,0.150000X-0.587500X-0.150000X0.587500X-0.150000X0.587500X0.150000X-0.587500X0.150000X0*%
%ADD27R,1.935000X1.935000*%
%ADD28C,1.935000*%
%ADD29R,1.700000X1.700000*%
%ADD30O,1.700000X1.700000*%
%ADD31C,3.000000*%
%ADD32RoundRect,0.250002X-1.599998X1.599998X-1.599998X-1.599998X1.599998X-1.599998X1.599998X1.599998X0*%
%ADD33C,3.700000*%
%ADD34R,1.600000X1.600000*%
%ADD35O,1.600000X1.600000*%
%ADD36R,0.450000X1.475000*%
%ADD37R,1.905000X2.000000*%
%ADD38O,1.905000X2.000000*%
%ADD39R,2.200000X2.200000*%
%ADD40O,2.200000X2.200000*%
%ADD41RoundRect,0.250000X0.250000X0.475000X-0.250000X0.475000X-0.250000X-0.475000X0.250000X-0.475000X0*%
%ADD42RoundRect,0.150000X0.587500X0.150000X-0.587500X0.150000X-0.587500X-0.150000X0.587500X-0.150000X0*%
%ADD43R,1.575000X1.575000*%
%ADD44C,1.575000*%
%ADD45R,1.800000X1.800000*%
%ADD46C,1.800000*%
%ADD47R,1.600200X1.600200*%
%ADD48C,1.600200*%
G04 APERTURE END LIST*
D10*
%TO.C,J1*%
X101090000Y-82450000D03*
D11*
X95090000Y-82450000D03*
D12*
X98090000Y-87150000D03*
%TD*%
D13*
%TO.C,TP13*%
X98591000Y-120631500D03*
%TD*%
D14*
%TO.C,R11*%
X174410000Y-85071500D03*
X172585000Y-85071500D03*
%TD*%
D15*
%TO.C,R4*%
X98845000Y-92643500D03*
X100670000Y-92643500D03*
%TD*%
D13*
%TO.C,TP15*%
X143676000Y-128759500D03*
%TD*%
D16*
%TO.C,R21*%
X131036000Y-74391000D03*
X131036000Y-72566000D03*
%TD*%
D17*
%TO.C,K1*%
X167394000Y-103617500D03*
D18*
X179394000Y-103617500D03*
D19*
X173394000Y-105617500D03*
D18*
X167394000Y-91417500D03*
X179394000Y-91417500D03*
%TD*%
D20*
%TO.C,R16*%
X136530000Y-108808500D03*
X136530000Y-110633500D03*
%TD*%
D21*
%TO.C,H4*%
X92046000Y-131030000D03*
D22*
X92046000Y-131030000D03*
%TD*%
D23*
%TO.C,C4*%
X113830000Y-75927500D03*
X115730000Y-75927500D03*
%TD*%
%TO.C,C6*%
X119932000Y-91929500D03*
X121832000Y-91929500D03*
%TD*%
D13*
%TO.C,TP12*%
X95670000Y-120631500D03*
%TD*%
%TO.C,TP3*%
X95416000Y-102618300D03*
%TD*%
%TO.C,TP20*%
X149190000Y-79041500D03*
%TD*%
D16*
%TO.C,R20*%
X98250000Y-74662500D03*
X98250000Y-72837500D03*
%TD*%
D24*
%TO.C,TP25*%
X101512000Y-126473500D03*
%TD*%
D20*
%TO.C,R2*%
X155298000Y-106531000D03*
X155298000Y-108356000D03*
%TD*%
D25*
%TO.C,Q3*%
X130656000Y-110882500D03*
X128756000Y-110882500D03*
X129706000Y-112757500D03*
%TD*%
D15*
%TO.C,R12*%
X120045000Y-85823500D03*
X121870000Y-85823500D03*
%TD*%
D13*
%TO.C,TP24*%
X131410000Y-79041500D03*
%TD*%
%TO.C,TP7*%
X95670000Y-114281500D03*
%TD*%
%TO.C,TP19*%
X141570000Y-79041500D03*
%TD*%
D16*
%TO.C,R14*%
X157140000Y-123546000D03*
X157140000Y-121721000D03*
%TD*%
D13*
%TO.C,TP6*%
X128870000Y-79041500D03*
%TD*%
D14*
%TO.C,R1*%
X155310000Y-99163500D03*
X153485000Y-99163500D03*
%TD*%
D13*
%TO.C,TP1*%
X95416000Y-90405500D03*
%TD*%
%TO.C,TP17*%
X146650000Y-79041500D03*
%TD*%
%TO.C,TP14*%
X172505000Y-128505500D03*
%TD*%
D15*
%TO.C,R9*%
X172585000Y-79483500D03*
X174410000Y-79483500D03*
%TD*%
D20*
%TO.C,R8*%
X104814000Y-97009500D03*
X104814000Y-98834500D03*
%TD*%
D13*
%TO.C,TP16*%
X130468000Y-128759500D03*
%TD*%
%TO.C,TP11*%
X101766000Y-114281500D03*
%TD*%
D15*
%TO.C,R13*%
X155313000Y-115297500D03*
X157138000Y-115297500D03*
%TD*%
D13*
%TO.C,TP4*%
X95416000Y-93453500D03*
%TD*%
D26*
%TO.C,Q1*%
X177615000Y-83613500D03*
X177615000Y-85513500D03*
X179490000Y-84563500D03*
%TD*%
D13*
%TO.C,TP27*%
X154270000Y-79041500D03*
%TD*%
%TO.C,TP21*%
X139030000Y-79041500D03*
%TD*%
D21*
%TO.C,H3*%
X182046000Y-129633000D03*
D22*
X182046000Y-129633000D03*
%TD*%
D13*
%TO.C,TP10*%
X159297000Y-128759500D03*
%TD*%
D27*
%TO.C,U1*%
X113710000Y-65053500D03*
D28*
X111170000Y-65053500D03*
X108630000Y-65053500D03*
%TD*%
D20*
%TO.C,R19*%
X98250000Y-66337500D03*
X98250000Y-68162500D03*
%TD*%
D13*
%TO.C,TP26*%
X95416000Y-108693500D03*
%TD*%
D20*
%TO.C,R6*%
X146978000Y-97724500D03*
X146978000Y-99549500D03*
%TD*%
D23*
%TO.C,C3*%
X98830000Y-98833500D03*
X100730000Y-98833500D03*
%TD*%
D29*
%TO.C,J3*%
X156810000Y-83613500D03*
D30*
X154270000Y-83613500D03*
X151730000Y-83613500D03*
X149190000Y-83613500D03*
X146650000Y-83613500D03*
X144110000Y-83613500D03*
X141570000Y-83613500D03*
X139030000Y-83613500D03*
X136490000Y-83613500D03*
X133950000Y-83613500D03*
X131410000Y-83613500D03*
X128870000Y-83613500D03*
X126330000Y-83613500D03*
%TD*%
D14*
%TO.C,R7*%
X143128000Y-102503500D03*
X141303000Y-102503500D03*
%TD*%
D21*
%TO.C,H2*%
X182046000Y-61030000D03*
D22*
X182046000Y-61030000D03*
%TD*%
D20*
%TO.C,R18*%
X113704000Y-108797000D03*
X113704000Y-110622000D03*
%TD*%
D31*
%TO.C,J2*%
X178000000Y-120885500D03*
D32*
X170700000Y-120885500D03*
D33*
X165200000Y-120885500D03*
%TD*%
D34*
%TO.C,U3*%
X109142000Y-91939500D03*
D35*
X109142000Y-94479500D03*
X109142000Y-97019500D03*
X109142000Y-99559500D03*
X116762000Y-99559500D03*
X116762000Y-97019500D03*
X116762000Y-94479500D03*
X116762000Y-91939500D03*
%TD*%
D21*
%TO.C,H1*%
X92046000Y-61030000D03*
D22*
X92046000Y-61030000D03*
%TD*%
D23*
%TO.C,C5*%
X113830000Y-71273500D03*
X115730000Y-71273500D03*
%TD*%
D13*
%TO.C,TP18*%
X144110000Y-79041500D03*
%TD*%
D15*
%TO.C,R15*%
X138953500Y-116186500D03*
X140778500Y-116186500D03*
%TD*%
D13*
%TO.C,TP22*%
X136490000Y-79041500D03*
%TD*%
D36*
%TO.C,IC1*%
X151850000Y-102513500D03*
X151200000Y-102513500D03*
X150550000Y-102513500D03*
X149900000Y-102513500D03*
X149250000Y-102513500D03*
X148600000Y-102513500D03*
X147950000Y-102513500D03*
X147300000Y-102513500D03*
X146650000Y-102513500D03*
X146000000Y-102513500D03*
X146000000Y-108389500D03*
X146650000Y-108389500D03*
X147300000Y-108389500D03*
X147950000Y-108389500D03*
X148600000Y-108389500D03*
X149250000Y-108389500D03*
X149900000Y-108389500D03*
X150550000Y-108389500D03*
X151200000Y-108389500D03*
X151850000Y-108389500D03*
%TD*%
D16*
%TO.C,R10*%
X121065000Y-98861000D03*
X121065000Y-97036000D03*
%TD*%
D20*
%TO.C,R17*%
X122086000Y-108797000D03*
X122086000Y-110622000D03*
%TD*%
D16*
%TO.C,R5*%
X155308000Y-104336000D03*
X155308000Y-102511000D03*
%TD*%
D13*
%TO.C,TP23*%
X133950000Y-79041500D03*
%TD*%
D37*
%TO.C,U2*%
X113790000Y-81673500D03*
D38*
X111250000Y-81673500D03*
X108710000Y-81673500D03*
%TD*%
D13*
%TO.C,TP2*%
X151730000Y-79041500D03*
%TD*%
D39*
%TO.C,D1*%
X168568000Y-112249500D03*
D40*
X178728000Y-112249500D03*
%TD*%
D41*
%TO.C,C1*%
X108750000Y-75913500D03*
X106850000Y-75913500D03*
%TD*%
D42*
%TO.C,Q2*%
X151055000Y-123603500D03*
X151055000Y-121703500D03*
X149180000Y-122653500D03*
%TD*%
D41*
%TO.C,C2*%
X108750000Y-71263500D03*
X106850000Y-71263500D03*
%TD*%
D13*
%TO.C,TP5*%
X95416000Y-99549500D03*
%TD*%
%TO.C,TP8*%
X98718000Y-114281500D03*
%TD*%
D43*
%TO.C,S1*%
X93450000Y-67210000D03*
D44*
X93450000Y-73710000D03*
X88950000Y-67210000D03*
X88950000Y-73710000D03*
%TD*%
D13*
%TO.C,TP9*%
X95416000Y-96501500D03*
%TD*%
D16*
%TO.C,R3*%
X104814000Y-94469500D03*
X104814000Y-92644500D03*
%TD*%
D45*
%TO.C,D2*%
X143427000Y-122663500D03*
D46*
X140887000Y-122663500D03*
%TD*%
D47*
%TO.C,LS1*%
X118784000Y-126463500D03*
D48*
X118784000Y-118853500D03*
%TD*%
D29*
%TO.C,U5*%
X126450000Y-74808500D03*
D30*
X126450000Y-72268500D03*
X126450000Y-69728500D03*
%TD*%
D29*
%TO.C,U4*%
X130849000Y-100057500D03*
D30*
X130849000Y-97517500D03*
X130849000Y-94977500D03*
X130849000Y-92437500D03*
%TD*%
M02*
